<svg xmlns="http://www.w3.org/2000/svg" xmlns:xlink="http://www.w3.org/1999/xlink" viewBox="0 0 1447.23 964.82"><defs><style>.cls-1{fill:#e5e4db;}.cls-2{mask:url(#mask);}</style><mask id="mask" x="0" y="0" width="1447.23" height="964.82" maskUnits="userSpaceOnUse"><g id="mask0_1347_61" data-name="mask0 1347 61"><path class="cls-1" d="M652.25,204.63a26,26,0,0,0,26,26h273.1a51,51,0,0,1,51,51V601.93a51,51,0,0,1-51,51H537.55a51,51,0,0,0-51,51V856.66a51,51,0,0,1-51,51H165.43a51,51,0,0,1-51-51V281.89a51,51,0,0,1,51-51h42.7a26.12,26.12,0,0,0,26.12-26.11,26.11,26.11,0,0,1,26.11-26.12H626.3A26,26,0,0,1,652.25,204.63Z"/></g></mask></defs><g id="Layer_2" data-name="Layer 2"><g id="Layer_1-2" data-name="Layer 1"><g class="cls-2"><rect width="1447.23" height="964.82"/></g></g></g></svg>