<svg viewBox="112.755233012 178.909852988 889.5640400000001 727.47428" xmlns:xlink="http://www.w3.org/1999/xlink" xmlns="http://www.w3.org/2000/svg" style="max-height: 500px" width="889.5640400000001" height="727.47428"><defs><style>.cls-1{fill:#e5e4db;}.cls-2{mask:url(#mask);}</style><mask maskUnits="userSpaceOnUse" height="964.82" width="1447.23" y="0" x="0" id="mask"><g data-name="mask0 1347 61" id="mask0_1347_61"><path d="M652.25,204.63a26,26,0,0,0,26,26h273.1a51,51,0,0,1,51,51V601.93a51,51,0,0,1-51,51H537.55a51,51,0,0,0-51,51V856.66a51,51,0,0,1-51,51H165.43a51,51,0,0,1-51-51V281.89a51,51,0,0,1,51-51h42.7a26.12,26.12,0,0,0,26.12-26.11,26.11,26.11,0,0,1,26.11-26.12H626.3A26,26,0,0,1,652.25,204.63Z" class="cls-1"/></g></mask></defs><g data-name="Layer 2" id="Layer_2"><g data-name="Layer 1" id="Layer_1-2"><g class="cls-2"><rect height="964.82" width="1447.23"/></g></g></g></svg>